<?xml version="1.0" encoding="UTF-8"?>
<svg id="logosandtypes_com" data-name="logosandtypes com" xmlns="http://www.w3.org/2000/svg" viewBox="0 0 150 150">
  <defs>
    <style>
      .cls-1 {
        fill: none;
      }

      .cls-2 {
        fill: #5e22f3;
      }
    </style>
  </defs>
  <path class="cls-1" d="M0,0H150V150H0V0Z"/>
  <path class="cls-2" d="M125.41,83.42c-10.54,10.71-4.52,22.71-13.39,31.73-3.79,3.85-9.21,6.72-15.38,6.72v-45.12c5.22,0,10.55-1.52,15.63-6.69,10.54-10.71,4.52-22.7,13.39-31.73,3.8-3.85,9.36-6.67,15.38-6.72v45.12c-5.26,0-10.55,1.52-15.63,6.69Z"/>
  <path class="cls-2" d="M81.02,83.42c-10.54,10.71-4.52,22.71-13.39,31.73-3.79,3.85-9.21,6.72-15.38,6.72v-45.12c5.22,0,10.55-1.52,15.63-6.69,10.54-10.71,4.52-22.7,13.39-31.73,3.8-3.85,9.36-6.67,15.38-6.72v45.12c-5.26,0-10.55,1.52-15.63,6.69Z"/>
  <path class="cls-2" d="M36.63,83.42c-10.54,10.71-4.52,22.71-13.39,31.73-3.79,3.85-9.36,6.69-15.38,6.72v-45.12c5.22,0,10.55-1.52,15.63-6.69,10.54-10.71,4.52-22.7,13.39-31.73,3.8-3.85,9.36-6.67,15.38-6.72v45.12c-5.26,0-10.55,1.52-15.63,6.69Z"/>
</svg>